<svg width="705" height="745" viewBox="0 0 705 745" fill="none" xmlns="http://www.w3.org/2000/svg">
<path d="M128.843 164.609L103.699 163.062V216.445C103.699 223.408 104.731 228.436 106.794 231.531C109.115 234.626 113.241 236.173 119.173 236.173C125.362 236.173 130.004 236.431 133.098 236.947C136.451 237.205 139.932 238.365 143.543 240.428C149.474 243.781 152.44 252.42 152.44 266.346C152.44 282.593 148.83 292.521 141.609 296.132C137.74 297.937 134.259 299.097 131.164 299.613C128.328 299.871 124.072 300 118.399 300C91.5787 300 71.2056 293.94 57.2797 281.819C43.3538 269.698 36.3909 249.196 36.3909 220.313V163.062C31.491 163.836 26.2043 164.222 20.5308 164.222C14.8573 164.222 10.0864 162.03 6.21808 157.646C2.60767 153.262 0.802457 145.784 0.802457 135.21C0.802457 124.637 1.44717 117.029 2.73661 112.387C4.02604 107.487 5.83125 104.006 8.15224 101.943C12.2784 98.5903 17.4362 96.914 23.6255 96.914L36.3909 98.4613V58.6178C36.3909 52.6864 36.5198 48.3023 36.7777 45.4655C37.2935 42.6288 38.5829 39.5341 40.646 36.1816C43.9985 29.7344 53.9272 26.5108 70.4319 26.5108C87.9683 26.5108 98.4127 31.2818 101.765 40.8236C103.055 44.9498 103.699 51.5259 103.699 60.5519V98.4613C115.046 97.4298 123.557 96.914 129.23 96.914C135.162 96.914 139.546 97.1719 142.382 97.6877C145.477 97.9455 148.959 99.106 152.827 101.169C159.532 104.522 162.884 114.45 162.884 130.955C162.884 147.202 159.403 157.131 152.44 160.741C148.572 162.546 145.09 163.707 141.996 164.222C139.159 164.48 134.775 164.609 128.843 164.609ZM184.245 130.181C184.245 124.25 184.374 119.866 184.632 117.029C185.147 113.935 186.308 110.453 188.113 106.585C191.723 99.8797 201.781 96.5272 218.286 96.5272C230.664 96.5272 239.433 98.7192 244.59 103.103C248.974 106.714 251.295 112.258 251.553 119.737C251.811 122.316 251.94 126.055 251.94 130.955V266.346C251.94 272.277 251.682 276.79 251.166 279.885C250.909 282.722 249.748 286.074 247.685 289.942C244.332 296.647 234.404 300 217.899 300C201.652 300 191.723 296.519 188.113 289.556C186.308 285.687 185.147 282.335 184.632 279.498C184.374 276.661 184.245 272.148 184.245 265.959V130.181ZM247.685 58.6178C245.88 62.2282 242.527 64.8071 237.627 66.3544C232.727 67.9017 226.151 68.6754 217.899 68.6754C209.904 68.6754 203.457 67.9017 198.557 66.3544C193.658 64.8071 190.176 62.0993 188.113 58.231C186.308 54.3626 185.147 51.0101 184.632 48.1734C184.374 45.0787 184.245 40.5657 184.245 34.6343C184.245 28.7029 184.374 24.3188 184.632 21.482C185.147 18.3874 186.308 15.0349 188.113 11.4244C191.723 4.46149 201.781 0.980019 218.286 0.980019C234.533 0.980019 244.332 4.46149 247.685 11.4244C249.748 15.2928 250.909 18.7742 251.166 21.8689C251.682 24.7056 251.94 29.0897 251.94 35.0211C251.94 40.9525 251.682 45.4655 251.166 48.5602C250.909 51.3969 249.748 54.7495 247.685 58.6178ZM346.668 198.264C346.668 209.095 350.279 217.605 357.499 223.794C364.72 229.726 372.328 232.691 380.322 232.691C388.575 232.691 396.183 230.371 403.145 225.729C410.366 220.829 416.169 218.379 420.553 218.379C428.289 218.379 437.702 225.213 448.791 238.881C454.723 246.36 457.689 253.065 457.689 258.996C457.689 268.796 450.597 277.951 436.413 286.461C421.713 296.776 403.661 301.934 382.257 301.934C358.273 301.934 335.192 293.295 313.014 276.017C302.441 267.764 293.801 256.804 287.096 243.136C280.391 229.21 277.039 213.995 277.039 197.49C277.039 180.727 280.391 165.641 287.096 152.231C293.801 138.563 302.441 127.603 313.014 119.35C334.419 102.33 357.242 93.8193 381.483 93.8193C391.283 93.8193 400.824 95.2377 410.108 98.0745C419.392 100.653 426.226 103.232 430.61 105.811L436.8 109.679C441.442 112.774 445.052 115.224 447.631 117.029C454.336 122.187 457.689 128.118 457.689 134.823C457.689 141.271 454.981 148.62 449.565 156.873C440.281 171.057 431.384 178.148 422.874 178.148C417.974 178.148 411.011 175.312 401.985 169.638C397.343 165.254 390.638 163.062 381.87 163.062C373.36 163.062 365.365 166.157 357.886 172.346C350.408 178.535 346.668 187.174 346.668 198.264ZM542.637 236.173C547.021 240.557 549.213 249.583 549.213 263.251V264.798C549.213 270.988 548.955 275.63 548.44 278.724C548.182 281.561 546.892 285.043 544.571 289.169C540.703 296.647 530.903 300.387 515.172 300.387C499.699 300.387 489.383 297.937 484.226 293.037C479.326 288.137 476.876 278.853 476.876 265.185V263.638C476.876 257.707 477.005 253.194 477.263 250.099C477.779 247.004 479.068 243.523 481.131 239.654C484.999 231.918 494.67 228.05 510.143 228.05C525.874 228.05 536.706 230.757 542.637 236.173ZM128.843 603.609L103.699 602.062V655.445C103.699 662.408 104.731 667.436 106.794 670.531C109.115 673.626 113.241 675.173 119.173 675.173C125.362 675.173 130.004 675.431 133.098 675.947C136.451 676.205 139.932 677.365 143.543 679.428C149.474 682.781 152.44 691.42 152.44 705.346C152.44 721.593 148.83 731.521 141.609 735.132C137.74 736.937 134.259 738.097 131.164 738.613C128.328 738.871 124.072 739 118.399 739C91.5787 739 71.2056 732.94 57.2797 720.819C43.3538 708.698 36.3909 688.196 36.3909 659.313V602.062C31.491 602.836 26.2043 603.222 20.5308 603.222C14.8573 603.222 10.0864 601.03 6.21808 596.646C2.60767 592.262 0.802457 584.784 0.802457 574.21C0.802457 563.637 1.44717 556.029 2.73661 551.387C4.02604 546.487 5.83125 543.006 8.15224 540.943C12.2784 537.59 17.4362 535.914 23.6255 535.914L36.3909 537.461V497.618C36.3909 491.686 36.5198 487.302 36.7777 484.466C37.2935 481.629 38.5829 478.534 40.646 475.182C43.9985 468.734 53.9272 465.511 70.4319 465.511C87.9683 465.511 98.4127 470.282 101.765 479.824C103.055 483.95 103.699 490.526 103.699 499.552V537.461C115.046 536.43 123.557 535.914 129.23 535.914C135.162 535.914 139.546 536.172 142.382 536.688C145.477 536.946 148.959 538.106 152.827 540.169C159.532 543.522 162.884 553.45 162.884 569.955C162.884 586.202 159.403 596.131 152.44 599.741C148.572 601.546 145.09 602.707 141.996 603.222C139.159 603.48 134.775 603.609 128.843 603.609ZM178.442 637.264C178.442 606.317 189.274 580.786 210.936 560.671C232.599 540.556 257.356 530.498 285.207 530.498C313.059 530.498 337.687 540.556 359.092 560.671C380.497 580.528 391.199 605.93 391.199 636.877C391.199 658.281 385.654 677.365 374.565 694.128C363.476 710.632 349.937 722.882 333.948 730.877C318.217 738.613 301.841 742.481 284.821 742.481C267.8 742.481 251.295 738.355 235.306 730.103C219.317 721.593 205.778 709.214 194.689 692.967C183.858 676.462 178.442 657.895 178.442 637.264ZM259.29 665.115C267.542 671.305 275.924 674.399 284.434 674.399C292.944 674.399 301.454 671.176 309.965 664.729C318.475 658.281 322.73 648.74 322.73 636.103C322.73 623.467 318.733 614.054 310.738 607.864C302.744 601.675 294.105 598.581 284.821 598.581C275.537 598.581 266.897 601.804 258.903 608.251C250.909 614.698 246.911 624.24 246.911 636.877C246.911 649.255 251.037 658.668 259.29 665.115ZM612.702 612.893C612.702 628.624 608.705 640.358 600.71 648.095C592.973 655.574 584.334 659.313 574.792 659.313H483.114C483.114 666.534 487.369 672.594 495.879 677.494C504.389 682.394 512.9 684.844 521.41 684.844C536.367 684.844 548.101 683.296 556.611 680.202L560.867 678.654C567.056 675.818 572.214 674.399 576.34 674.399C584.592 674.399 591.684 680.202 597.615 691.807C600.968 698.77 602.644 704.701 602.644 709.601C602.644 732.553 575.179 744.029 520.249 744.029C501.166 744.029 484.145 740.805 469.188 734.358C454.488 727.653 443.012 718.885 434.76 708.054C418.513 687.165 410.389 663.826 410.389 638.037C410.389 605.543 420.834 579.626 441.723 560.284C462.869 540.685 489.174 530.885 520.636 530.885C556.482 530.885 582.787 543.522 599.55 568.795C608.318 582.205 612.702 596.904 612.702 612.893ZM531.081 624.111C540.88 624.111 545.78 619.985 545.78 611.733C545.78 605.801 543.459 601.03 538.817 597.42C534.433 593.81 527.986 592.004 519.476 592.004C511.223 592.004 502.971 595.486 494.719 602.449C486.466 609.154 482.34 616.375 482.34 624.111H531.081ZM697.898 675.173C702.282 679.557 704.474 688.583 704.474 702.251V703.798C704.474 709.988 704.216 714.63 703.701 717.724C703.443 720.561 702.153 724.043 699.832 728.169C695.964 735.647 686.164 739.387 670.433 739.387C654.96 739.387 644.644 736.937 639.487 732.037C634.587 727.137 632.137 717.853 632.137 704.185V702.638C632.137 696.707 632.266 692.194 632.524 689.099C633.04 686.004 634.329 682.523 636.392 678.654C640.26 670.918 649.931 667.05 665.404 667.05C681.135 667.05 691.967 669.757 697.898 675.173Z" fill="#DCBF3F"/>
<path d="M128.843 384.609L103.699 383.062V436.445C103.699 443.408 104.731 448.436 106.794 451.531C109.115 454.626 113.241 456.173 119.173 456.173C125.362 456.173 130.004 456.431 133.098 456.947C136.451 457.205 139.932 458.365 143.543 460.428C149.474 463.781 152.44 472.42 152.44 486.346C152.44 502.593 148.83 512.521 141.609 516.132C137.74 517.937 134.259 519.097 131.164 519.613C128.328 519.871 124.072 520 118.399 520C91.5787 520 71.2056 513.94 57.2797 501.819C43.3538 489.698 36.3909 469.196 36.3909 440.313V383.062C31.491 383.836 26.2043 384.222 20.5308 384.222C14.8573 384.222 10.0864 382.03 6.21808 377.646C2.60767 373.262 0.802457 365.784 0.802457 355.21C0.802457 344.637 1.44717 337.029 2.73661 332.387C4.02604 327.487 5.83125 324.006 8.15224 321.943C12.2784 318.59 17.4362 316.914 23.6255 316.914L36.3909 318.461V278.618C36.3909 272.686 36.5198 268.302 36.7777 265.466C37.2935 262.629 38.5829 259.534 40.646 256.182C43.9985 249.734 53.9272 246.511 70.4319 246.511C87.9683 246.511 98.4127 251.282 101.765 260.824C103.055 264.95 103.699 271.526 103.699 280.552V318.461C115.046 317.43 123.557 316.914 129.23 316.914C135.162 316.914 139.546 317.172 142.382 317.688C145.477 317.946 148.959 319.106 152.827 321.169C159.532 324.522 162.884 334.45 162.884 350.955C162.884 367.202 159.403 377.131 152.44 380.741C148.572 382.546 145.09 383.707 141.996 384.222C139.159 384.48 134.775 384.609 128.843 384.609ZM316.541 337.803C318.088 323.361 328.275 316.14 347.1 316.14C357.158 316.14 364.637 316.914 369.537 318.461C374.436 320.009 377.789 322.716 379.594 326.585C381.657 330.453 382.818 333.935 383.076 337.029C383.591 339.866 383.849 344.25 383.849 350.181V485.572C383.849 491.503 383.591 496.017 383.076 499.111C382.818 501.948 381.786 505.3 379.981 509.169C376.371 515.874 367.473 519.226 353.29 519.226C339.364 519.226 329.951 517.55 325.051 514.198C320.409 510.587 317.701 505.429 316.928 498.724C307.386 512.392 291.397 519.226 268.961 519.226C246.782 519.226 226.151 509.04 207.068 488.667C187.984 468.294 178.442 444.697 178.442 417.877C178.442 390.799 187.984 367.202 207.068 347.087C226.409 326.714 247.556 316.527 270.508 316.527C279.276 316.527 287.271 318.074 294.491 321.169C301.712 324.264 306.741 327.229 309.578 330.066C312.415 332.645 314.736 335.224 316.541 337.803ZM246.138 418.264C246.138 426.774 249.49 434.51 256.195 441.473C262.9 448.178 271.024 451.531 280.566 451.531C290.107 451.531 297.973 448.05 304.162 441.087C310.609 434.124 313.833 426.516 313.833 418.264C313.833 409.753 310.738 401.888 304.549 394.667C298.618 387.446 290.494 383.836 280.179 383.836C270.121 383.836 261.869 387.446 255.422 394.667C249.232 401.888 246.138 409.753 246.138 418.264ZM478.508 418.264C478.508 429.095 482.118 437.605 489.339 443.794C496.56 449.726 504.168 452.691 512.162 452.691C520.415 452.691 528.022 450.371 534.985 445.729C542.206 440.829 548.008 438.379 552.393 438.379C560.129 438.379 569.542 445.213 580.631 458.881C586.563 466.36 589.528 473.065 589.528 478.996C589.528 488.796 582.436 497.951 568.253 506.461C553.553 516.776 535.501 521.934 514.096 521.934C490.113 521.934 467.032 513.295 444.854 496.017C434.28 487.764 425.641 476.804 418.936 463.136C412.231 449.21 408.878 433.995 408.878 417.49C408.878 400.727 412.231 385.641 418.936 372.231C425.641 358.563 434.28 347.603 444.854 339.35C466.258 322.33 489.081 313.819 513.323 313.819C523.122 313.819 532.664 315.238 541.948 318.074C551.232 320.653 558.066 323.232 562.45 325.811L568.639 329.679C573.281 332.774 576.892 335.224 579.471 337.029C586.176 342.187 589.528 348.118 589.528 354.823C589.528 361.271 586.82 368.62 581.405 376.873C572.121 391.057 563.224 398.148 554.713 398.148C549.814 398.148 542.851 395.312 533.825 389.638C529.183 385.254 522.478 383.062 513.709 383.062C505.199 383.062 497.205 386.157 489.726 392.346C482.247 398.535 478.508 407.174 478.508 418.264ZM674.477 456.173C678.861 460.557 681.053 469.583 681.053 483.251V484.798C681.053 490.988 680.795 495.63 680.279 498.724C680.021 501.561 678.732 505.043 676.411 509.169C672.543 516.647 662.743 520.387 647.012 520.387C631.539 520.387 621.223 517.937 616.065 513.037C611.166 508.137 608.716 498.853 608.716 485.185V483.638C608.716 477.707 608.845 473.194 609.102 470.099C609.618 467.004 610.908 463.523 612.971 459.654C616.839 451.918 626.51 448.05 641.983 448.05C657.714 448.05 668.545 450.757 674.477 456.173Z" fill="#72CFF9"/>
</svg>
